<svg width="24" height="24" viewBox="0 0 24 24" fill="none" xmlns="http://www.w3.org/2000/svg">
<circle cx="12" cy="12" r="11.5" fill="white" stroke="#F74747"/>
<path d="M12.5962 13.8276L12.9383 7H11.0805L11.4292 13.8276H12.5962ZM12.006 17C12.319 17 12.5616 16.9072 12.7337 16.7217C12.9059 16.5361 12.992 16.2846 12.992 15.9671C12.992 15.6497 12.907 15.4015 12.7371 15.2227C12.5672 15.0438 12.3235 14.9544 12.006 14.9544C11.6841 14.9544 11.4359 15.0405 11.2616 15.2126C11.0872 15.3848 11 15.6363 11 15.9671C11 16.298 11.0883 16.5529 11.2649 16.7317C11.4415 16.9106 11.6886 17 12.006 17Z" fill="#F74747"/>
</svg>
